<?xml version="1.0" standalone="no"?>
<!DOCTYPE svg PUBLIC "-//W3C//DTD SVG 20010904//EN"
 "http://www.w3.org/TR/2001/REC-SVG-20010904/DTD/svg10.dtd">
<svg version="1.0" xmlns="http://www.w3.org/2000/svg"
 width="376.000000pt" height="289.000000pt" viewBox="0 0 376.000000 289.000000"
 preserveAspectRatio="xMidYMid meet">

<g transform="translate(0.000000,289.000000) scale(0.100000,-0.100000)"
fill="#000000" stroke="none">
<path d="M1720 2690 c0 -5 5 -10 10 -10 12 0 502 -77 545 -86 20 -4 27 -3 20
4 -13 12 -482 102 -535 102 -22 0 -40 -4 -40 -10z"/>
<path d="M1640 2662 c0 -5 144 -33 320 -62 l321 -54 56 -88 c31 -48 59 -86 61
-83 5 5 -73 152 -96 181 -15 18 -56 28 -307 68 -290 46 -355 53 -355 38z"/>
<path d="M1569 2637 c-13 -5 -19 -11 -14 -13 6 -2 163 -31 350 -64 187 -34
347 -63 355 -66 8 -2 58 -68 110 -145 52 -77 96 -136 98 -130 2 6 -39 78 -92
159 l-96 148 -212 37 c-117 20 -272 47 -344 60 -93 17 -137 21 -155 14z"/>
<path d="M1466 2601 c-3 -5 31 -16 77 -24 45 -9 224 -43 399 -77 l316 -62 112
-154 c61 -85 114 -154 117 -154 27 0 -207 337 -240 345 -80 20 -717 135 -743
135 -18 0 -35 -4 -38 -9z"/>
<path d="M1371 2571 c-9 -6 1 -12 35 -19 27 -6 224 -47 439 -92 214 -45 393
-84 397 -86 4 -3 62 -74 129 -159 66 -85 123 -155 125 -155 18 0 -13 50 -119
191 l-124 164 -414 83 c-228 45 -423 82 -434 82 -11 0 -26 -4 -34 -9z"/>
<path d="M1288 2543 c-10 -2 -18 -8 -18 -11 0 -4 179 -47 398 -96 218 -50 434
-98 480 -109 l82 -19 136 -159 c74 -87 137 -159 140 -159 31 0 -251 356 -289
365 -123 28 -901 195 -906 194 -3 -1 -14 -3 -23 -6z"/>
<path d="M1240 2481 c-17 -33 -13 -40 18 -29 22 8 109 -10 482 -102 250 -61
464 -117 475 -124 11 -8 81 -79 155 -159 74 -80 138 -146 143 -146 26 -3 -10
46 -139 190 -81 90 -147 165 -148 166 -3 4 -945 223 -959 223 -9 0 -21 -9 -27
-19z"/>
<path d="M1245 2413 c-32 -17 -45 -31 -45 -50 0 -9 10 -8 41 2 23 8 53 15 66
15 14 0 154 -34 312 -76 214 -57 332 -94 469 -149 l182 -73 128 -121 c88 -83
128 -115 130 -104 3 10 -51 71 -140 160 l-143 143 -104 41 c-91 36 -815 230
-853 229 -7 -1 -26 -8 -43 -17z"/>
<path d="M1250 2334 c-52 -14 -85 -38 -75 -54 2 -4 40 -1 83 6 l79 14 169 -50
c93 -27 311 -105 484 -174 l315 -125 109 -88 c124 -99 129 -103 124 -76 -1 11
-58 68 -126 128 l-123 107 -257 102 c-186 74 -319 120 -482 164 -124 34 -229
62 -235 61 -5 0 -35 -7 -65 -15z"/>
<path d="M1242 2250 c-68 -6 -91 -17 -92 -42 0 -5 50 -8 111 -8 l111 0 487
-189 c448 -173 496 -194 586 -254 54 -36 102 -64 106 -61 18 11 -8 37 -110
113 l-108 81 -394 154 c-392 153 -574 217 -607 215 -9 -1 -50 -5 -90 -9z"/>
<path d="M1134 2159 c-11 -18 7 -25 117 -47 83 -16 217 -63 610 -213 277 -105
535 -207 573 -226 64 -32 96 -37 96 -14 0 5 -35 31 -77 57 -55 33 -227 104
-583 241 -430 166 -516 196 -585 204 -105 12 -142 11 -151 -2z"/>
<path d="M1120 2092 c0 -16 17 -27 78 -50 42 -16 344 -130 671 -253 569 -214
594 -222 607 -204 13 18 11 21 -18 36 -65 33 -1120 429 -1210 454 -51 14 -101
28 -110 31 -13 4 -18 0 -18 -14z"/>
<path d="M1120 2022 c0 -15 26 -35 108 -80 82 -46 228 -104 630 -252 480 -178
524 -192 547 -180 14 7 25 16 25 19 0 3 -235 93 -523 200 -287 107 -576 218
-642 248 -66 30 -126 57 -132 60 -8 3 -13 -3 -13 -15z"/>
<path d="M1120 1951 c0 -13 29 -42 87 -87 l88 -67 498 -182 c488 -179 498
-182 520 -165 12 10 20 20 17 22 -3 2 -232 87 -510 189 -446 163 -514 190
-590 240 -47 30 -91 58 -97 63 -9 5 -13 1 -13 -13z"/>
<path d="M1120 1877 c0 -18 22 -44 84 -101 l85 -77 453 -163 c372 -134 456
-162 471 -152 10 6 17 16 16 21 -1 6 -212 86 -468 179 -256 93 -478 178 -492
190 -15 11 -54 45 -88 74 -57 51 -61 52 -61 29z"/>
<path d="M1110 1815 c0 -11 33 -61 74 -110 l75 -90 423 -151 c343 -122 426
-149 441 -140 10 6 18 15 18 20 0 5 -195 79 -433 164 l-433 154 -82 86 c-62
65 -82 82 -83 67z"/>
<path d="M1111 1735 c0 -11 30 -62 67 -114 l67 -94 380 -133 c209 -74 387
-134 396 -134 9 0 22 7 29 15 15 18 36 9 -424 171 l-370 129 -45 59 c-25 33
-58 74 -73 90 -24 27 -27 28 -27 11z"/>
<path d="M1107 1668 c-7 -21 28 -81 81 -139 75 -82 180 -134 487 -240 245 -85
268 -91 283 -76 9 9 14 19 11 21 -3 3 -167 61 -364 129 l-360 124 -66 97 c-37
53 -69 91 -72 84z"/>
<path d="M1665 1242 c109 -66 174 -95 199 -88 14 3 26 10 26 15 0 9 -220 91
-243 91 -7 0 2 -8 18 -18z"/>
<path d="M965 833 c0 -48 -1 -157 -2 -242 -3 -141 -4 -153 -20 -146 -10 4 -39
10 -65 12 l-47 5 -11 57 c-6 31 -15 72 -20 91 -5 19 -12 58 -15 85 -10 83 -24
114 -63 140 -55 37 -63 34 -60 -29 2 -49 -4 -67 -54 -168 -67 -132 -173 -279
-229 -314 -22 -14 -37 -29 -34 -34 4 -6 1 -26 -6 -45 -17 -46 0 -68 31 -40 18
16 26 17 73 6 289 -64 417 -87 443 -77 19 7 17 30 -14 146 -21 82 -17 97 28
100 61 5 60 6 60 -80 0 -84 15 -176 31 -186 5 -3 9 7 8 23 -3 62 14 218 23
224 6 4 7 13 3 20 -12 18 -14 73 -4 79 10 7 18 60 25 155 2 39 8 84 14 100 17
56 16 154 -2 177 -7 9 -31 19 -53 23 l-40 6 0 -88z m-261 -169 c3 -8 2 -12 -4
-9 -6 3 -10 10 -10 16 0 14 7 11 14 -7z m51 -152 c10 -34 16 -64 14 -66 -8 -7
-209 -53 -209 -48 0 2 10 15 23 27 50 49 120 131 130 153 13 27 16 22 42 -66z
m-15 -161 c48 17 61 8 87 -61 39 -103 39 -105 -32 -106 -33 -1 -64 -2 -70 -4
-47 -11 -255 47 -255 71 0 12 140 80 150 74 13 -8 70 23 70 38 0 6 5 4 10 -5
9 -14 16 -15 40 -7z"/>
<path d="M2749 913 c-2 -4 -4 -174 -4 -378 0 -334 2 -373 17 -400 10 -16 18
-41 18 -55 0 -14 5 -32 10 -40 12 -17 3 60 -11 97 -5 13 -5 23 -1 23 4 0 8 37
9 83 2 45 6 114 10 152 4 39 6 73 5 78 -1 4 3 7 9 7 8 0 7 6 -2 17 -10 11 -10
14 -1 9 8 -5 12 0 13 16 5 72 8 99 19 158 22 127 22 140 10 185 -10 35 -17 45
-34 45 -11 0 -31 3 -42 6 -12 3 -23 2 -25 -3z"/>
<path d="M2888 913 c-2 -4 -3 -174 -3 -378 0 -333 2 -373 18 -402 9 -18 17
-45 17 -62 0 -16 4 -33 10 -36 10 -6 6 28 -10 92 -5 18 -5 33 -2 33 6 0 12
108 16 260 1 19 4 37 8 40 9 7 18 63 23 150 3 36 12 94 21 128 16 66 12 128
-9 155 -13 16 -83 32 -89 20z"/>
<path d="M2209 844 c0 -11 0 -64 1 -120 l1 -100 -47 -11 c-43 -10 -50 -9 -62
8 -18 26 -100 27 -108 2 -12 -40 -37 -81 -75 -123 l-39 -45 2 75 3 75 -34 3
c-18 2 -37 0 -42 -5 -13 -13 -14 -392 -1 -405 7 -7 25 -13 41 -14 27 -2 29 1
35 44 13 98 47 197 86 251 l38 53 6 -53 c3 -30 10 -102 15 -162 6 -59 17 -120
25 -135 18 -34 42 -56 54 -48 6 3 8 94 5 213 l-4 208 36 -40 c50 -55 61 -85
74 -195 12 -97 38 -207 51 -215 4 -3 6 72 3 165 -2 102 0 185 7 209 9 35 15
41 58 55 26 8 62 18 80 21 l32 7 -32 -52 c-39 -63 -47 -133 -24 -211 33 -115
164 -178 269 -130 26 12 47 24 47 27 0 3 -29 3 -64 -1 -71 -8 -124 9 -151 49
-23 32 -18 39 14 15 35 -26 52 -19 105 45 55 67 94 160 98 230 3 58 2 60 -31
79 -46 28 -112 39 -131 22 -8 -7 -25 -16 -36 -19 -12 -4 -29 -15 -39 -26 -15
-17 -20 -17 -39 -5 -11 7 -46 18 -76 24 l-56 12 4 92 c4 86 3 93 -20 114 -12
12 -35 25 -50 28 -23 6 -28 4 -29 -11z m444 -275 c9 -34 -49 -144 -108 -205
-70 -71 -80 -70 -72 6 10 94 56 170 122 200 51 24 52 24 58 -1z"/>
<path d="M1650 636 c-6 -6 -10 -16 -10 -24 0 -16 -79 -131 -106 -152 -15 -13
-16 -13 -11 5 5 18 10 100 8 133 -1 13 -67 17 -75 4 -2 -4 -6 -93 -7 -199 -3
-210 0 -225 52 -221 24 2 29 7 29 28 0 62 48 213 85 266 21 30 40 53 42 50 2
-2 9 -64 14 -137 11 -148 32 -235 61 -250 31 -17 41 -1 34 53 -4 27 -7 134 -7
238 0 134 -3 191 -12 198 -18 14 -85 20 -97 8z"/>
<path d="M3079 631 c-64 -50 -126 -264 -101 -348 15 -50 69 -102 118 -113 34
-8 44 -5 87 22 66 42 107 85 107 112 0 12 10 30 21 40 19 16 21 25 16 76 -4
32 -14 77 -23 99 -17 42 -59 85 -75 75 -14 -8 -10 -34 5 -34 8 0 17 -7 20 -16
9 -24 7 -31 -5 -11 -19 32 -24 17 -21 -57 5 -95 -8 -135 -63 -185 -49 -45 -92
-62 -106 -40 -31 50 -10 209 38 287 30 49 53 64 53 36 0 -16 4 -14 27 9 22 22
26 31 17 45 -16 26 -84 28 -115 3z"/>
<path d="M1194 587 c-54 -30 -154 -189 -154 -243 0 -81 50 -149 115 -159 33
-5 44 -2 65 18 14 13 32 27 41 33 25 14 82 84 75 91 -3 4 -16 -3 -29 -14 -28
-27 -121 -73 -145 -73 -51 0 -55 54 -9 154 37 79 94 136 137 136 40 0 50 -18
50 -91 0 -69 25 -222 41 -249 8 -15 10 -11 14 55 3 60 17 178 27 233 12 75 8
82 -53 86 -24 2 -61 11 -81 20 -44 19 -65 20 -94 3z"/>
<path d="M1000 71 c0 -17 4 -32 8 -35 4 -2 6 11 4 30 -5 42 -12 45 -12 5z"/>
</g>
</svg>
